<svg width="390" height="437" viewBox="0 0 390 437" fill="none" xmlns="http://www.w3.org/2000/svg">
<g clip-path="url(#clip0_5_2)">
<path d="M193.5 107L306 276H81L137.25 191.5L151.312 170.375L154.828 165.094L156.586 162.453L158.344 159.813L165.375 149.25L193.5 107Z" fill="#7AC9C1"/>
<path d="M193 219L80.4167 53.25H305.583L193 219Z" fill="#707070" fill-opacity="0.9"/>
<path d="M47.752 357.768C44.296 357.768 41.0747 357.213 38.088 356.104C35.144 354.952 32.584 353.331 30.408 351.24C28.232 349.149 26.5253 346.696 25.288 343.88C24.0933 341.064 23.496 337.971 23.496 334.6C23.496 331.229 24.0933 328.136 25.288 325.32C26.5253 322.504 28.232 320.051 30.408 317.96C32.6267 315.869 35.208 314.269 38.152 313.16C41.096 312.008 44.3173 311.432 47.816 311.432C51.6987 311.432 55.1973 312.115 58.312 313.48C61.4693 314.803 64.1147 316.765 66.248 319.368L59.592 325.512C58.056 323.763 56.3493 322.461 54.472 321.608C52.5947 320.712 50.5467 320.264 48.328 320.264C46.2373 320.264 44.3173 320.605 42.568 321.288C40.8187 321.971 39.304 322.952 38.024 324.232C36.744 325.512 35.7413 327.027 35.016 328.776C34.3333 330.525 33.992 332.467 33.992 334.6C33.992 336.733 34.3333 338.675 35.016 340.424C35.7413 342.173 36.744 343.688 38.024 344.968C39.304 346.248 40.8187 347.229 42.568 347.912C44.3173 348.595 46.2373 348.936 48.328 348.936C50.5467 348.936 52.5947 348.509 54.472 347.656C56.3493 346.76 58.056 345.416 59.592 343.624L66.248 349.768C64.1147 352.371 61.4693 354.355 58.312 355.72C55.1973 357.085 51.6773 357.768 47.752 357.768ZM73.2495 357V312.2H83.6175V357H73.2495ZM103.53 357V320.648H89.1935V312.2H128.234V320.648H113.898V357H103.53ZM144.073 357V338.696L146.441 344.968L126.729 312.2H137.737L152.841 337.352H146.505L161.673 312.2H171.849L152.137 344.968L154.441 338.696V357H144.073ZM203.592 357V320.648H189.256V312.2H228.296V320.648H213.96V357H203.592ZM233.875 357V312.2H244.243V357H233.875ZM254.875 357V312.2H263.451L282.523 343.816H277.979L296.731 312.2H305.243L305.371 357H295.643L295.579 327.112H297.371L282.395 352.264H277.723L262.427 327.112H264.603V357H254.875ZM325.536 330.248H347.104V338.312H325.536V330.248ZM326.304 348.68H350.688V357H316V312.2H349.856V320.52H326.304V348.68Z" fill="black"/>
<path d="M62.1136 395V377.545H72.6477V379.42H64.2273V385.318H72.1023V387.193H64.2273V393.125H72.7841V395H62.1136ZM80.0369 395.307C79.2074 395.307 78.4545 395.151 77.7784 394.838C77.1023 394.52 76.5653 394.062 76.1676 393.466C75.7699 392.864 75.571 392.136 75.571 391.284C75.571 390.534 75.7188 389.926 76.0142 389.46C76.3097 388.989 76.7045 388.619 77.1989 388.352C77.6932 388.085 78.2386 387.886 78.8352 387.756C79.4375 387.619 80.0426 387.511 80.6506 387.432C81.446 387.33 82.0909 387.253 82.5852 387.202C83.0852 387.145 83.4489 387.051 83.6761 386.92C83.9091 386.79 84.0256 386.562 84.0256 386.239V386.17C84.0256 385.33 83.7955 384.676 83.3352 384.21C82.8807 383.744 82.1903 383.511 81.2642 383.511C80.304 383.511 79.5511 383.722 79.0057 384.142C78.4602 384.562 78.0767 385.011 77.8551 385.489L75.946 384.807C76.2869 384.011 76.7415 383.392 77.3097 382.949C77.8835 382.5 78.5085 382.187 79.1847 382.011C79.8665 381.83 80.5369 381.739 81.196 381.739C81.6165 381.739 82.0994 381.79 82.6449 381.892C83.196 381.989 83.7273 382.19 84.2386 382.497C84.7557 382.804 85.1847 383.267 85.5256 383.886C85.8665 384.506 86.0369 385.335 86.0369 386.375V395H84.0256V393.227H83.9233C83.7869 393.511 83.5597 393.815 83.2415 394.139C82.9233 394.463 82.5 394.739 81.9716 394.966C81.4432 395.193 80.7983 395.307 80.0369 395.307ZM80.3438 393.5C81.1392 393.5 81.8097 393.344 82.3551 393.031C82.9063 392.719 83.321 392.315 83.5994 391.821C83.8835 391.327 84.0256 390.807 84.0256 390.261V388.42C83.9403 388.523 83.7528 388.616 83.4631 388.702C83.179 388.781 82.8494 388.852 82.4744 388.915C82.1051 388.972 81.7443 389.023 81.392 389.068C81.0455 389.108 80.7642 389.142 80.5483 389.17C80.0256 389.239 79.5369 389.349 79.0824 389.503C78.6335 389.651 78.2699 389.875 77.9915 390.176C77.7188 390.472 77.5824 390.875 77.5824 391.386C77.5824 392.085 77.8409 392.614 78.358 392.972C78.8807 393.324 79.5426 393.5 80.3438 393.5ZM98.9808 384.841L97.174 385.352C97.0604 385.051 96.8928 384.759 96.6712 384.474C96.4553 384.185 96.1598 383.946 95.7848 383.759C95.4098 383.571 94.9297 383.477 94.3445 383.477C93.5433 383.477 92.8757 383.662 92.3416 384.031C91.8132 384.395 91.549 384.858 91.549 385.42C91.549 385.92 91.7308 386.315 92.0945 386.605C92.4581 386.895 93.0263 387.136 93.799 387.33L95.7422 387.807C96.9126 388.091 97.7848 388.526 98.3587 389.111C98.9325 389.69 99.2195 390.437 99.2195 391.352C99.2195 392.102 99.0036 392.773 98.5717 393.364C98.1456 393.955 97.549 394.42 96.782 394.761C96.0149 395.102 95.1229 395.273 94.1058 395.273C92.7706 395.273 91.6655 394.983 90.7905 394.403C89.9155 393.824 89.3615 392.977 89.1286 391.864L91.0376 391.386C91.2195 392.091 91.5632 392.619 92.0689 392.972C92.5803 393.324 93.2479 393.5 94.0717 393.5C95.0092 393.5 95.7536 393.301 96.3047 392.903C96.8615 392.5 97.1399 392.017 97.1399 391.455C97.1399 391 96.9808 390.619 96.6626 390.312C96.3445 390 95.8558 389.767 95.1967 389.614L93.0149 389.102C91.8161 388.818 90.9354 388.378 90.3729 387.781C89.8161 387.179 89.5376 386.426 89.5376 385.523C89.5376 384.784 89.745 384.131 90.1598 383.562C90.5803 382.994 91.1513 382.548 91.8729 382.224C92.6001 381.901 93.424 381.739 94.3445 381.739C95.6399 381.739 96.657 382.023 97.3956 382.591C98.1399 383.159 98.6683 383.909 98.9808 384.841ZM103.543 399.909C103.202 399.909 102.898 399.881 102.631 399.824C102.364 399.773 102.179 399.722 102.077 399.67L102.588 397.898C103.077 398.023 103.509 398.068 103.884 398.034C104.259 398 104.591 397.832 104.881 397.531C105.176 397.236 105.446 396.756 105.69 396.091L106.065 395.068L101.224 381.909H103.406L107.02 392.341H107.156L110.77 381.909H112.952L107.395 396.909C107.145 397.585 106.835 398.145 106.466 398.588C106.097 399.037 105.668 399.369 105.179 399.585C104.696 399.801 104.151 399.909 103.543 399.909ZM121.675 379.42V377.545H134.766V379.42H129.277V395H127.163V379.42H121.675ZM137.755 395V381.909H139.766V395H137.755ZM138.778 379.727C138.386 379.727 138.048 379.594 137.763 379.327C137.485 379.06 137.346 378.739 137.346 378.364C137.346 377.989 137.485 377.668 137.763 377.401C138.048 377.134 138.386 377 138.778 377C139.17 377 139.505 377.134 139.783 377.401C140.067 377.668 140.21 377.989 140.21 378.364C140.21 378.739 140.067 379.06 139.783 379.327C139.505 379.594 139.17 379.727 138.778 379.727ZM143.45 395V381.909H145.393V383.955H145.564C145.837 383.256 146.277 382.713 146.885 382.327C147.493 381.935 148.223 381.739 149.075 381.739C149.939 381.739 150.658 381.935 151.232 382.327C151.811 382.713 152.263 383.256 152.587 383.955H152.723C153.058 383.278 153.561 382.741 154.232 382.344C154.902 381.94 155.706 381.739 156.643 381.739C157.814 381.739 158.771 382.105 159.516 382.838C160.26 383.565 160.632 384.699 160.632 386.239V395H158.621V386.239C158.621 385.273 158.357 384.582 157.828 384.168C157.3 383.753 156.678 383.545 155.962 383.545C155.041 383.545 154.328 383.824 153.822 384.381C153.317 384.932 153.064 385.631 153.064 386.477V395H151.018V386.034C151.018 385.29 150.777 384.69 150.294 384.236C149.811 383.776 149.189 383.545 148.428 383.545C147.905 383.545 147.416 383.685 146.962 383.963C146.513 384.241 146.149 384.628 145.871 385.122C145.598 385.611 145.462 386.176 145.462 386.818V395H143.45ZM169.798 395.273C168.537 395.273 167.449 394.994 166.534 394.438C165.625 393.875 164.923 393.091 164.429 392.085C163.94 391.074 163.696 389.898 163.696 388.557C163.696 387.216 163.94 386.034 164.429 385.011C164.923 383.983 165.611 383.182 166.491 382.608C167.378 382.028 168.412 381.739 169.594 381.739C170.276 381.739 170.949 381.852 171.614 382.08C172.278 382.307 172.884 382.676 173.429 383.188C173.974 383.693 174.409 384.364 174.733 385.199C175.057 386.034 175.219 387.062 175.219 388.284V389.136H165.128V387.398H173.173C173.173 386.659 173.026 386 172.73 385.42C172.44 384.841 172.026 384.384 171.486 384.048C170.952 383.713 170.321 383.545 169.594 383.545C168.793 383.545 168.099 383.744 167.514 384.142C166.935 384.534 166.489 385.045 166.176 385.676C165.864 386.307 165.707 386.983 165.707 387.705V388.864C165.707 389.852 165.878 390.69 166.219 391.378C166.565 392.06 167.045 392.58 167.659 392.938C168.273 393.29 168.986 393.466 169.798 393.466C170.327 393.466 170.804 393.392 171.23 393.244C171.662 393.091 172.034 392.864 172.347 392.562C172.659 392.256 172.901 391.875 173.071 391.42L175.014 391.966C174.81 392.625 174.466 393.205 173.983 393.705C173.5 394.199 172.903 394.585 172.193 394.864C171.483 395.136 170.685 395.273 169.798 395.273ZM199.347 383H197.233C197.108 382.392 196.889 381.858 196.577 381.398C196.27 380.938 195.895 380.551 195.452 380.239C195.014 379.92 194.528 379.682 193.994 379.523C193.46 379.364 192.903 379.284 192.324 379.284C191.267 379.284 190.31 379.551 189.452 380.085C188.599 380.619 187.92 381.406 187.415 382.446C186.915 383.486 186.665 384.761 186.665 386.273C186.665 387.784 186.915 389.06 187.415 390.099C187.92 391.139 188.599 391.926 189.452 392.46C190.31 392.994 191.267 393.261 192.324 393.261C192.903 393.261 193.46 393.182 193.994 393.023C194.528 392.864 195.014 392.628 195.452 392.315C195.895 391.997 196.27 391.608 196.577 391.148C196.889 390.682 197.108 390.148 197.233 389.545H199.347C199.188 390.437 198.898 391.236 198.477 391.94C198.057 392.645 197.534 393.244 196.909 393.739C196.284 394.227 195.582 394.599 194.804 394.855C194.031 395.111 193.205 395.239 192.324 395.239C190.835 395.239 189.511 394.875 188.352 394.148C187.193 393.42 186.281 392.386 185.616 391.045C184.952 389.705 184.619 388.114 184.619 386.273C184.619 384.432 184.952 382.841 185.616 381.5C186.281 380.159 187.193 379.125 188.352 378.398C189.511 377.67 190.835 377.307 192.324 377.307C193.205 377.307 194.031 377.435 194.804 377.69C195.582 377.946 196.284 378.321 196.909 378.815C197.534 379.304 198.057 379.901 198.477 380.605C198.898 381.304 199.188 382.102 199.347 383ZM207.808 395.273C206.626 395.273 205.589 394.991 204.697 394.429C203.81 393.866 203.117 393.08 202.617 392.068C202.123 391.057 201.876 389.875 201.876 388.523C201.876 387.159 202.123 385.969 202.617 384.952C203.117 383.935 203.81 383.145 204.697 382.582C205.589 382.02 206.626 381.739 207.808 381.739C208.989 381.739 210.023 382.02 210.91 382.582C211.802 383.145 212.495 383.935 212.989 384.952C213.489 385.969 213.739 387.159 213.739 388.523C213.739 389.875 213.489 391.057 212.989 392.068C212.495 393.08 211.802 393.866 210.91 394.429C210.023 394.991 208.989 395.273 207.808 395.273ZM207.808 393.466C208.705 393.466 209.444 393.236 210.023 392.776C210.603 392.315 211.032 391.71 211.31 390.96C211.589 390.21 211.728 389.398 211.728 388.523C211.728 387.648 211.589 386.832 211.31 386.077C211.032 385.321 210.603 384.71 210.023 384.244C209.444 383.778 208.705 383.545 207.808 383.545C206.91 383.545 206.171 383.778 205.592 384.244C205.012 384.71 204.583 385.321 204.305 386.077C204.026 386.832 203.887 387.648 203.887 388.523C203.887 389.398 204.026 390.21 204.305 390.96C204.583 391.71 205.012 392.315 205.592 392.776C206.171 393.236 206.91 393.466 207.808 393.466ZM218.821 387.125V395H216.81V381.909H218.753V383.955H218.923C219.23 383.29 219.696 382.756 220.321 382.352C220.946 381.943 221.753 381.739 222.741 381.739C223.628 381.739 224.403 381.92 225.068 382.284C225.733 382.642 226.25 383.188 226.619 383.92C226.989 384.648 227.173 385.568 227.173 386.682V395H225.162V386.818C225.162 385.79 224.895 384.989 224.361 384.415C223.827 383.835 223.094 383.545 222.162 383.545C221.52 383.545 220.946 383.685 220.44 383.963C219.94 384.241 219.545 384.648 219.256 385.182C218.966 385.716 218.821 386.364 218.821 387.125ZM241.085 381.909L236.244 395H234.198L229.357 381.909H231.539L235.153 392.341H235.289L238.903 381.909H241.085ZM248.759 395.273C247.498 395.273 246.41 394.994 245.495 394.438C244.586 393.875 243.884 393.091 243.39 392.085C242.901 391.074 242.657 389.898 242.657 388.557C242.657 387.216 242.901 386.034 243.39 385.011C243.884 383.983 244.572 383.182 245.452 382.608C246.339 382.028 247.373 381.739 248.555 381.739C249.237 381.739 249.91 381.852 250.575 382.08C251.239 382.307 251.844 382.676 252.39 383.188C252.935 383.693 253.37 384.364 253.694 385.199C254.018 386.034 254.18 387.062 254.18 388.284V389.136H244.089V387.398H252.134C252.134 386.659 251.987 386 251.691 385.42C251.401 384.841 250.987 384.384 250.447 384.048C249.913 383.713 249.282 383.545 248.555 383.545C247.754 383.545 247.06 383.744 246.475 384.142C245.896 384.534 245.45 385.045 245.137 385.676C244.825 386.307 244.668 386.983 244.668 387.705V388.864C244.668 389.852 244.839 390.69 245.18 391.378C245.526 392.06 246.006 392.58 246.62 392.938C247.234 393.29 247.947 393.466 248.759 393.466C249.288 393.466 249.765 393.392 250.191 393.244C250.623 393.091 250.995 392.864 251.308 392.562C251.62 392.256 251.862 391.875 252.032 391.42L253.975 391.966C253.771 392.625 253.427 393.205 252.944 393.705C252.461 394.199 251.864 394.585 251.154 394.864C250.444 395.136 249.646 395.273 248.759 395.273ZM257.239 395V381.909H259.183V383.886H259.319C259.558 383.239 259.989 382.713 260.614 382.31C261.239 381.906 261.944 381.705 262.728 381.705C262.876 381.705 263.06 381.707 263.282 381.713C263.504 381.719 263.671 381.727 263.785 381.739V383.784C263.717 383.767 263.56 383.741 263.316 383.707C263.077 383.668 262.825 383.648 262.558 383.648C261.921 383.648 261.353 383.781 260.853 384.048C260.359 384.31 259.967 384.673 259.677 385.139C259.393 385.599 259.251 386.125 259.251 386.716V395H257.239ZM275.442 384.841L273.635 385.352C273.521 385.051 273.354 384.759 273.132 384.474C272.916 384.185 272.621 383.946 272.246 383.759C271.871 383.571 271.391 383.477 270.805 383.477C270.004 383.477 269.337 383.662 268.803 384.031C268.274 384.395 268.01 384.858 268.01 385.42C268.01 385.92 268.192 386.315 268.555 386.605C268.919 386.895 269.487 387.136 270.26 387.33L272.203 387.807C273.374 388.091 274.246 388.526 274.82 389.111C275.393 389.69 275.68 390.437 275.68 391.352C275.68 392.102 275.464 392.773 275.033 393.364C274.607 393.955 274.01 394.42 273.243 394.761C272.476 395.102 271.584 395.273 270.567 395.273C269.232 395.273 268.126 394.983 267.251 394.403C266.376 393.824 265.822 392.977 265.589 391.864L267.499 391.386C267.68 392.091 268.024 392.619 268.53 392.972C269.041 393.324 269.709 393.5 270.533 393.5C271.47 393.5 272.214 393.301 272.766 392.903C273.322 392.5 273.601 392.017 273.601 391.455C273.601 391 273.442 390.619 273.124 390.312C272.805 390 272.317 389.767 271.658 389.614L269.476 389.102C268.277 388.818 267.396 388.378 266.834 387.781C266.277 387.179 265.999 386.426 265.999 385.523C265.999 384.784 266.206 384.131 266.621 383.562C267.041 382.994 267.612 382.548 268.334 382.224C269.061 381.901 269.885 381.739 270.805 381.739C272.101 381.739 273.118 382.023 273.857 382.591C274.601 383.159 275.129 383.909 275.442 384.841ZM278.708 395V381.909H280.719V395H278.708ZM279.731 379.727C279.339 379.727 279.001 379.594 278.717 379.327C278.438 379.06 278.299 378.739 278.299 378.364C278.299 377.989 278.438 377.668 278.717 377.401C279.001 377.134 279.339 377 279.731 377C280.123 377 280.458 377.134 280.737 377.401C281.021 377.668 281.163 377.989 281.163 378.364C281.163 378.739 281.021 379.06 280.737 379.327C280.458 379.594 280.123 379.727 279.731 379.727ZM289.722 395.273C288.54 395.273 287.503 394.991 286.611 394.429C285.724 393.866 285.031 393.08 284.531 392.068C284.037 391.057 283.79 389.875 283.79 388.523C283.79 387.159 284.037 385.969 284.531 384.952C285.031 383.935 285.724 383.145 286.611 382.582C287.503 382.02 288.54 381.739 289.722 381.739C290.903 381.739 291.938 382.02 292.824 382.582C293.716 383.145 294.409 383.935 294.903 384.952C295.403 385.969 295.653 387.159 295.653 388.523C295.653 389.875 295.403 391.057 294.903 392.068C294.409 393.08 293.716 393.866 292.824 394.429C291.938 394.991 290.903 395.273 289.722 395.273ZM289.722 393.466C290.619 393.466 291.358 393.236 291.938 392.776C292.517 392.315 292.946 391.71 293.224 390.96C293.503 390.21 293.642 389.398 293.642 388.523C293.642 387.648 293.503 386.832 293.224 386.077C292.946 385.321 292.517 384.71 291.938 384.244C291.358 383.778 290.619 383.545 289.722 383.545C288.824 383.545 288.085 383.778 287.506 384.244C286.926 384.71 286.497 385.321 286.219 386.077C285.94 386.832 285.801 387.648 285.801 388.523C285.801 389.398 285.94 390.21 286.219 390.96C286.497 391.71 286.926 392.315 287.506 392.776C288.085 393.236 288.824 393.466 289.722 393.466ZM300.735 387.125V395H298.724V381.909H300.667V383.955H300.837C301.144 383.29 301.61 382.756 302.235 382.352C302.86 381.943 303.667 381.739 304.656 381.739C305.542 381.739 306.317 381.92 306.982 382.284C307.647 382.642 308.164 383.188 308.533 383.92C308.903 384.648 309.087 385.568 309.087 386.682V395H307.076V386.818C307.076 385.79 306.809 384.989 306.275 384.415C305.741 383.835 305.008 383.545 304.076 383.545C303.434 383.545 302.86 383.685 302.354 383.963C301.854 384.241 301.46 384.648 301.17 385.182C300.88 385.716 300.735 386.364 300.735 387.125ZM322.036 384.841L320.229 385.352C320.115 385.051 319.947 384.759 319.726 384.474C319.51 384.185 319.214 383.946 318.839 383.759C318.464 383.571 317.984 383.477 317.399 383.477C316.598 383.477 315.93 383.662 315.396 384.031C314.868 384.395 314.604 384.858 314.604 385.42C314.604 385.92 314.786 386.315 315.149 386.605C315.513 386.895 316.081 387.136 316.854 387.33L318.797 387.807C319.967 388.091 320.839 388.526 321.413 389.111C321.987 389.69 322.274 390.437 322.274 391.352C322.274 392.102 322.058 392.773 321.626 393.364C321.2 393.955 320.604 394.42 319.837 394.761C319.07 395.102 318.178 395.273 317.161 395.273C315.825 395.273 314.72 394.983 313.845 394.403C312.97 393.824 312.416 392.977 312.183 391.864L314.092 391.386C314.274 392.091 314.618 392.619 315.124 392.972C315.635 393.324 316.303 393.5 317.126 393.5C318.064 393.5 318.808 393.301 319.359 392.903C319.916 392.5 320.195 392.017 320.195 391.455C320.195 391 320.036 390.619 319.717 390.312C319.399 390 318.911 389.767 318.251 389.614L316.07 389.102C314.871 388.818 313.99 388.378 313.428 387.781C312.871 387.179 312.592 386.426 312.592 385.523C312.592 384.784 312.8 384.131 313.214 383.562C313.635 382.994 314.206 382.548 314.928 382.224C315.655 381.901 316.479 381.739 317.399 381.739C318.695 381.739 319.712 382.023 320.45 382.591C321.195 383.159 321.723 383.909 322.036 384.841Z" fill="#7AC9C1"/>
</g>
<defs>
<clipPath id="clip0_5_2">
<rect width="390" height="437" fill="white"/>
</clipPath>
</defs>
</svg>
